<svg width="967" height="427" viewBox="0 0 967 427" fill="none" xmlns="http://www.w3.org/2000/svg">
<g clip-path="url(#clip0_891_2)">
<path fill-rule="evenodd" clip-rule="evenodd" d="M148.254 237.257C129.246 220.481 117.257 195.936 117.257 168.591C117.257 131.358 139.483 99.316 171.391 85.0091L154.169 43.4089C105.952 64.485 72.2574 112.603 72.2574 168.591C72.2574 240.408 127.698 299.276 198.116 304.731L144.045 262.88L148.254 237.257ZM221.371 304.573C290.899 298.232 345.363 239.772 345.363 168.591C345.363 114.785 314.243 68.2475 269.021 45.9951L249.498 86.5536C279.645 101.534 300.363 132.643 300.363 168.591C300.363 195.563 288.699 219.812 270.139 236.567L274.355 262.88L221.371 304.573Z" fill="#0A043C"/>
<mask id="path-2-inside-1_891_2" fill="white">
<path d="M253.719 40.8991C240.086 34.4507 225.225 31.0144 210.145 30.824C195.066 30.6336 180.122 33.6936 166.331 39.7959L183.378 78.3217C191.636 74.6677 200.584 72.8354 209.613 72.9494C218.643 73.0634 227.542 75.121 235.705 78.9823L253.719 40.8991Z"/>
</mask>
<path d="M253.719 40.8991C240.086 34.4507 225.225 31.0144 210.145 30.824C195.066 30.6336 180.122 33.6936 166.331 39.7959L183.378 78.3217C191.636 74.6677 200.584 72.8354 209.613 72.9494C218.643 73.0634 227.542 75.121 235.705 78.9823L253.719 40.8991Z" stroke="#FF794C" stroke-width="110" mask="url(#path-2-inside-1_891_2)"/>
<rect x="125.281" y="248.104" width="45" height="150.274" rx="20" transform="rotate(40.256 125.281 248.104)" fill="#0A043C"/>
<mask id="mask0_891_2" style="mask-type:alpha" maskUnits="userSpaceOnUse" x="160" y="94" width="98" height="203">
<path d="M187.567 94.4622H231.5L257.969 258.717L209.603 296.56L160.431 258.717L187.567 94.4622Z" fill="#C4C4C4"/>
</mask>
<g mask="url(#mask0_891_2)">
<rect x="136.11" y="342.926" width="162.788" height="11.7045" transform="rotate(-38.3131 136.11 342.926)" fill="#FF794C"/>
<rect x="136.11" y="324.199" width="162.788" height="11.7045" transform="rotate(-38.3131 136.11 324.199)" fill="#FF794C"/>
<rect x="136.11" y="305.472" width="162.788" height="11.7045" transform="rotate(-38.3131 136.11 305.472)" fill="#FF794C"/>
<rect x="136.11" y="286.745" width="162.788" height="11.7045" transform="rotate(-38.3131 136.11 286.745)" fill="#FF794C"/>
<rect x="136.11" y="268.017" width="162.788" height="11.7045" transform="rotate(-38.3131 136.11 268.017)" fill="#FF794C"/>
<rect x="136.11" y="249.29" width="162.788" height="11.7045" transform="rotate(-38.3131 136.11 249.29)" fill="#FF794C"/>
<rect x="136.11" y="230.563" width="162.788" height="11.7045" transform="rotate(-38.3131 136.11 230.563)" fill="#FF794C"/>
<rect x="136.11" y="211.836" width="162.788" height="11.7045" transform="rotate(-38.3131 136.11 211.836)" fill="#FF794C"/>
<rect x="136.11" y="193.108" width="162.788" height="11.7045" transform="rotate(-38.3131 136.11 193.108)" fill="#FF794C"/>
<rect x="136.11" y="174.381" width="162.788" height="11.7045" transform="rotate(-38.3131 136.11 174.381)" fill="#FF794C"/>
<rect x="136.11" y="155.654" width="162.788" height="11.7045" transform="rotate(-38.3131 136.11 155.654)" fill="#FF794C"/>
<rect x="136.11" y="136.927" width="162.788" height="11.7045" transform="rotate(-38.3131 136.11 136.927)" fill="#FF794C"/>
</g>
<path d="M374.8 111.1H405.55C414.85 111.1 419.5 115.5 419.5 124.3V155.5C419.5 164.3 414.85 168.7 405.55 168.7H388.3V205H374.8V111.1ZM406 153.4V126.4C406 124.6 405.7 123.45 405.1 122.95C404.5 122.35 403.3 122.05 401.5 122.05H388.3V157.9H401.5C403.3 157.9 404.5 157.6 405.1 157C405.7 156.4 406 155.2 406 153.4ZM461.489 205L457.739 183.25H437.939L434.489 205H420.989L437.639 111.1H457.289L475.139 205H461.489ZM439.589 172.3H455.939L447.389 122.8L439.589 172.3ZM493.704 167.05V205H480.204V111.1H510.954C520.254 111.1 524.904 115.5 524.904 124.3V153.7C524.904 161.3 521.554 165.65 514.854 166.75L529.704 205H515.154L501.054 167.05H493.704ZM493.704 122.05V156.25H506.904C508.704 156.25 509.904 156 510.504 155.5C511.104 154.9 511.404 153.7 511.404 151.9V126.4C511.404 124.6 511.104 123.45 510.504 122.95C509.904 122.35 508.704 122.05 506.904 122.05H493.704ZM573.127 111.1V122.05H557.377V205H543.877V122.05H528.127V111.1H573.127ZM615.063 111.1V122.05H599.313V205H585.813V122.05H570.063V111.1H615.063ZM620.248 111.1H633.748V205H620.248V111.1ZM657.892 205H646.042V111.1H660.892L676.942 169.3L692.992 111.1H707.842V205H695.992V136.3L683.092 184.6H670.792L657.892 136.45V205ZM732.536 194.05H759.686V205H718.886V111.1H758.636V122.05H732.536V151H754.136V161.95H732.536V194.05ZM760.102 174.1H773.752V189.7C773.752 191.5 774.052 192.7 774.652 193.3C775.252 193.8 776.452 194.05 778.252 194.05H782.602C784.402 194.05 785.602 193.8 786.202 193.3C786.802 192.7 787.102 191.5 787.102 189.7V111.1H800.752V191.8C800.752 200.6 796.102 205 786.802 205H774.052C764.752 205 760.102 200.6 760.102 191.8V174.1ZM824.75 111.1H841.4C850.7 111.1 855.35 115.5 855.35 124.3V191.8C855.35 200.6 850.7 205 841.4 205H824.75C815.35 205 810.65 200.6 810.65 191.8V124.3C810.65 115.5 815.35 111.1 824.75 111.1ZM841.85 189.7V126.4C841.85 124.6 841.55 123.45 840.95 122.95C840.35 122.35 839.15 122.05 837.35 122.05H828.65C826.85 122.05 825.65 122.35 825.05 122.95C824.55 123.45 824.3 124.6 824.3 126.4V189.7C824.3 191.5 824.55 192.7 825.05 193.3C825.65 193.8 826.85 194.05 828.65 194.05H837.35C839.15 194.05 840.35 193.8 840.95 193.3C841.55 192.7 841.85 191.5 841.85 189.7ZM898.786 147.55V126.1C898.786 124.3 898.486 123.15 897.886 122.65C897.286 122.05 896.086 121.75 894.286 121.75H879.286V151.9H894.286C896.086 151.9 897.286 151.65 897.886 151.15C898.486 150.55 898.786 149.35 898.786 147.55ZM898.786 190V166.9C898.786 165.1 898.486 163.95 897.886 163.45C897.286 162.85 896.086 162.55 894.286 162.55H879.286V194.35H894.286C896.086 194.35 897.286 194.1 897.886 193.6C898.486 193 898.786 191.8 898.786 190ZM865.786 111.1H898.336C907.736 111.1 912.436 115.5 912.436 124.3V148.15C912.436 153.45 910.436 156.55 906.436 157.45C910.436 158.45 912.436 161.35 912.436 166.15V191.8C912.436 200.6 907.736 205 898.336 205H865.786V111.1Z" fill="#0A043C"/>
<path d="M389.082 249.582C387.262 251.419 385.035 252.338 382.4 252.338C379.765 252.338 377.538 251.419 375.718 249.582C373.898 247.745 372.988 245.517 372.988 242.9C372.988 240.265 373.898 238.038 375.718 236.218C377.538 234.381 379.765 233.462 382.4 233.462C385.035 233.462 387.262 234.381 389.082 236.218C390.919 238.038 391.838 240.265 391.838 242.9C391.838 245.517 390.919 247.745 389.082 249.582ZM377.382 247.944C378.734 249.296 380.407 249.972 382.4 249.972C384.393 249.972 386.057 249.296 387.392 247.944C388.744 246.575 389.42 244.893 389.42 242.9C389.42 240.889 388.744 239.208 387.392 237.856C386.057 236.487 384.393 235.802 382.4 235.802C380.407 235.802 378.734 236.487 377.382 237.856C376.047 239.208 375.38 240.889 375.38 242.9C375.38 244.893 376.047 246.575 377.382 247.944ZM403.585 238.662C405.11 238.662 406.332 239.147 407.251 240.118C408.17 241.071 408.629 242.371 408.629 244.018V252H406.367V244.148C406.367 243.091 406.081 242.276 405.509 241.704C404.937 241.115 404.148 240.82 403.143 240.82C402.016 240.82 401.106 241.175 400.413 241.886C399.72 242.579 399.373 243.654 399.373 245.11V252H397.111V239H399.373V240.872C400.292 239.399 401.696 238.662 403.585 238.662ZM414.387 252V233.02H416.649V252H414.387ZM423.844 236.634C423.41 236.634 423.046 236.487 422.752 236.192C422.457 235.897 422.31 235.542 422.31 235.126C422.31 234.71 422.457 234.355 422.752 234.06C423.046 233.748 423.41 233.592 423.844 233.592C424.26 233.592 424.615 233.748 424.91 234.06C425.204 234.355 425.352 234.71 425.352 235.126C425.352 235.542 425.204 235.897 424.91 236.192C424.615 236.487 424.26 236.634 423.844 236.634ZM422.7 252V239H424.962V252H422.7ZM437.486 238.662C439.012 238.662 440.234 239.147 441.152 240.118C442.071 241.071 442.53 242.371 442.53 244.018V252H440.268V244.148C440.268 243.091 439.982 242.276 439.41 241.704C438.838 241.115 438.05 240.82 437.044 240.82C435.918 240.82 435.008 241.175 434.314 241.886C433.621 242.579 433.274 243.654 433.274 245.11V252H431.012V239H433.274V240.872C434.193 239.399 435.597 238.662 437.486 238.662ZM449.874 246.54C450.1 247.701 450.628 248.603 451.46 249.244C452.31 249.885 453.35 250.206 454.58 250.206C456.296 250.206 457.544 249.573 458.324 248.308L460.248 249.4C458.983 251.359 457.076 252.338 454.528 252.338C452.466 252.338 450.784 251.697 449.484 250.414C448.202 249.114 447.56 247.476 447.56 245.5C447.56 243.541 448.193 241.912 449.458 240.612C450.724 239.312 452.362 238.662 454.372 238.662C456.279 238.662 457.83 239.338 459.026 240.69C460.24 242.025 460.846 243.637 460.846 245.526C460.846 245.855 460.82 246.193 460.768 246.54H449.874ZM454.372 240.794C453.159 240.794 452.154 241.141 451.356 241.834C450.559 242.51 450.065 243.42 449.874 244.564H458.558C458.368 243.333 457.882 242.397 457.102 241.756C456.322 241.115 455.412 240.794 454.372 240.794ZM476.862 236.634C476.429 236.634 476.065 236.487 475.77 236.192C475.476 235.897 475.328 235.542 475.328 235.126C475.328 234.71 475.476 234.355 475.77 234.06C476.065 233.748 476.429 233.592 476.862 233.592C477.278 233.592 477.634 233.748 477.928 234.06C478.223 234.355 478.37 234.71 478.37 235.126C478.37 235.542 478.223 235.897 477.928 236.192C477.634 236.487 477.278 236.634 476.862 236.634ZM475.718 252.78V239H477.98V252.78C477.98 254.461 477.556 255.701 476.706 256.498C475.857 257.313 474.609 257.659 472.962 257.538V255.354C473.916 255.441 474.609 255.285 475.042 254.886C475.493 254.487 475.718 253.785 475.718 252.78ZM494.99 250.362C493.655 251.679 492.035 252.338 490.128 252.338C488.221 252.338 486.601 251.679 485.266 250.362C483.949 249.045 483.29 247.424 483.29 245.5C483.29 243.576 483.949 241.955 485.266 240.638C486.601 239.321 488.221 238.662 490.128 238.662C492.035 238.662 493.655 239.321 494.99 240.638C496.325 241.955 496.992 243.576 496.992 245.5C496.992 247.424 496.325 249.045 494.99 250.362ZM490.128 250.128C491.428 250.128 492.52 249.686 493.404 248.802C494.288 247.918 494.73 246.817 494.73 245.5C494.73 244.183 494.288 243.082 493.404 242.198C492.52 241.314 491.428 240.872 490.128 240.872C488.845 240.872 487.762 241.314 486.878 242.198C485.994 243.082 485.552 244.183 485.552 245.5C485.552 246.817 485.994 247.918 486.878 248.802C487.762 249.686 488.845 250.128 490.128 250.128ZM509.435 238.662C511.255 238.662 512.806 239.329 514.089 240.664C515.371 241.981 516.013 243.593 516.013 245.5C516.013 247.407 515.371 249.027 514.089 250.362C512.806 251.679 511.255 252.338 509.435 252.338C507.285 252.338 505.647 251.48 504.521 249.764V252H502.259V233.8H504.521V241.236C505.647 239.52 507.285 238.662 509.435 238.662ZM509.149 250.154C510.449 250.154 511.541 249.712 512.425 248.828C513.309 247.927 513.751 246.817 513.751 245.5C513.751 244.183 513.309 243.082 512.425 242.198C511.541 241.297 510.449 240.846 509.149 240.846C507.831 240.846 506.731 241.297 505.847 242.198C504.963 243.082 504.521 244.183 504.521 245.5C504.521 246.817 504.963 247.927 505.847 248.828C506.731 249.712 507.831 250.154 509.149 250.154ZM537.588 238.662C539.408 238.662 540.959 239.329 542.242 240.664C543.524 241.981 544.166 243.593 544.166 245.5C544.166 247.407 543.524 249.027 542.242 250.362C540.959 251.679 539.408 252.338 537.588 252.338C535.438 252.338 533.8 251.48 532.674 249.764V257.2H530.412V239H532.674V241.236C533.8 239.52 535.438 238.662 537.588 238.662ZM537.302 250.154C538.602 250.154 539.694 249.712 540.578 248.828C541.462 247.927 541.904 246.817 541.904 245.5C541.904 244.183 541.462 243.082 540.578 242.198C539.694 241.297 538.602 240.846 537.302 240.846C535.984 240.846 534.884 241.297 534 242.198C533.116 243.082 532.674 244.183 532.674 245.5C532.674 246.817 533.116 247.927 534 248.828C534.884 249.712 535.984 250.154 537.302 250.154ZM560.437 250.362C559.102 251.679 557.481 252.338 555.575 252.338C553.668 252.338 552.047 251.679 550.713 250.362C549.395 249.045 548.737 247.424 548.737 245.5C548.737 243.576 549.395 241.955 550.713 240.638C552.047 239.321 553.668 238.662 555.575 238.662C557.481 238.662 559.102 239.321 560.437 240.638C561.771 241.955 562.439 243.576 562.439 245.5C562.439 247.424 561.771 249.045 560.437 250.362ZM555.575 250.128C556.875 250.128 557.967 249.686 558.851 248.802C559.735 247.918 560.177 246.817 560.177 245.5C560.177 244.183 559.735 243.082 558.851 242.198C557.967 241.314 556.875 240.872 555.575 240.872C554.292 240.872 553.209 241.314 552.325 242.198C551.441 243.082 550.999 244.183 550.999 245.5C550.999 246.817 551.441 247.918 552.325 248.802C553.209 249.686 554.292 250.128 555.575 250.128ZM569.967 241.184C570.713 239.572 572.065 238.766 574.023 238.766V241.132C572.914 241.08 571.961 241.375 571.163 242.016C570.366 242.657 569.967 243.689 569.967 245.11V252H567.705V239H569.967V241.184ZM586.213 241.184H582.755V248.23C582.755 248.871 582.877 249.331 583.119 249.608C583.379 249.868 583.769 250.007 584.289 250.024C584.809 250.024 585.451 250.007 586.213 249.972V252C584.237 252.26 582.79 252.104 581.871 251.532C580.953 250.943 580.493 249.842 580.493 248.23V241.184H577.919V239H580.493V236.036L582.755 235.36V239H586.213V241.184ZM601.595 239H603.857V252H601.595V249.764C600.469 251.48 598.831 252.338 596.681 252.338C594.861 252.338 593.31 251.679 592.027 250.362C590.745 249.027 590.103 247.407 590.103 245.5C590.103 243.593 590.745 241.981 592.027 240.664C593.31 239.329 594.861 238.662 596.681 238.662C598.831 238.662 600.469 239.52 601.595 241.236V239ZM596.967 250.154C598.285 250.154 599.385 249.712 600.269 248.828C601.153 247.927 601.595 246.817 601.595 245.5C601.595 244.183 601.153 243.082 600.269 242.198C599.385 241.297 598.285 240.846 596.967 240.846C595.667 240.846 594.575 241.297 593.691 242.198C592.807 243.082 592.365 244.183 592.365 245.5C592.365 246.817 592.807 247.927 593.691 248.828C594.575 249.712 595.667 250.154 596.967 250.154ZM609.884 252V233.02H612.146V252H609.884ZM628.441 236.634C628.008 236.634 627.644 236.487 627.349 236.192C627.055 235.897 626.907 235.542 626.907 235.126C626.907 234.71 627.055 234.355 627.349 234.06C627.644 233.748 628.008 233.592 628.441 233.592C628.857 233.592 629.213 233.748 629.507 234.06C629.802 234.355 629.949 234.71 629.949 235.126C629.949 235.542 629.802 235.897 629.507 236.192C629.213 236.487 628.857 236.634 628.441 236.634ZM627.297 252V239H629.559V252H627.297ZM642.084 238.662C643.609 238.662 644.831 239.147 645.75 240.118C646.669 241.071 647.128 242.371 647.128 244.018V252H644.866V244.148C644.866 243.091 644.58 242.276 644.008 241.704C643.436 241.115 642.647 240.82 641.642 240.82C640.515 240.82 639.605 241.175 638.912 241.886C638.219 242.579 637.872 243.654 637.872 245.11V252H635.61V239H637.872V240.872C638.791 239.399 640.195 238.662 642.084 238.662ZM673.738 250.596C672.473 251.757 670.835 252.338 668.824 252.338C666.813 252.338 665.167 251.757 663.884 250.596C662.619 249.417 661.986 247.849 661.986 245.89V233.8H664.404V245.786C664.404 247.069 664.785 248.091 665.548 248.854C666.311 249.599 667.403 249.972 668.824 249.972C670.245 249.972 671.337 249.599 672.1 248.854C672.863 248.091 673.244 247.069 673.244 245.786V233.8H675.636V245.89C675.636 247.849 675.003 249.417 673.738 250.596ZM693.411 252L691.929 247.918H683.739L682.257 252H679.683L686.469 233.8H689.199L695.985 252H693.411ZM684.571 245.656H691.097L687.821 236.686L684.571 245.656ZM703.15 249.712H711.6V252H700.732V233.8H711.47V236.088H703.15V241.678H710.82V243.94H703.15V249.712Z" fill="#FF794C"/>
</g>
<defs>
<clipPath id="clip0_891_2">
<rect width="967" height="427" fill="white"/>
</clipPath>
</defs>
</svg>
